PathFileType	4	(X/Y/Z)	4_coords_data.trc
DataRate	CameraRate	NumFrames	NumMarkers	Units	OrigDataRate	OrigDataStartFrame	OrigNumFrames
30.0	30.0	7	21	m	30.0	1	50
Frame#	Time	THUMB_TIP	THUMB_IP	THUMB_MCP	THUMB_CMC	INDEX_TIP	INDEX_DIP	INDEX_PIP	INDEX_MCP	MIDDLE_TIP	MIDDLE_DIP	MIDDLE_PIP	MIDDLE_MCP	RING_TIP	RING_DIP	RING_PIP	RING_MCP	PINKY_TIP	PINKY_DIP	PINKY_PIP	PINKY_MCP	WRIST
X1	Y1	Z1	X2	Y2	Z2	X3	Y3	Z3	X4	Y4	Z4	X5	Y5	Z5	X6	Y6	Z6	X7	Y7	Z7	X8	Y8	Z8	X9	Y9	Z9	X10	Y10	Z10	X11	Y11	Z11	X12	Y12	Z12	X13	Y13	Z13	X14	Y14	Z14	X15	Y15	Z15	X16	Y16	Z16	X17	Y17	Z17	X18	Y18	Z18	X19	Y19	Z19	X20	Y20	Z20	X21	Y21	Z21
0	0.0	-0.044900501251220706	-0.08422630310058593	1.0075999755859375	-0.05182609939575195	-0.0627333984375	1.0293399658203124	-0.06580870056152344	-0.04868880081176758	1.0598399658203126	-0.06833660125732421	-0.017413400650024415	1.0740400390625	-0.06201670074462891	-0.025150899887084962	1.048280029296875	-0.04808010101318359	-0.026527299880981445	1.0336800537109374	-0.04732260131835937	-0.03007110023498535	1.0086199951171875	-0.09034190368652344	-0.029765600204467772	1.01427001953125	-0.04742589950561524	-0.00985371971130371	1.042719970703125	-0.04444580078125	-0.008784549713134766	1.0370699462890625	-0.04103570175170899	-0.007512209892272949	1.007510009765625	-0.0878332977294922	-0.004346469879150391	1.0081699829101562	0.0	0.0	0.0	-0.04684960174560547	0.010227800369262696	1.0439599609375	-0.035156200408935544	0.01472920036315918	1.0169299926757813	-0.08265440368652344	0.02034000015258789	1.0113300170898438	-0.05711289978027344	0.02243899917602539	1.0520899658203124	-0.04641989898681641	0.02789809989929199	1.0388900146484374	-0.042798999786376954	0.03555870056152344	1.019260009765625	-0.07922280120849609	0.04343159866333008	1.017219970703125	-0.09275420379638671	0.009871159553527832	1.096199951171875
1	0.03333333333333333	-0.04338660049438477	-0.0827708969116211	1.00802001953125	-0.0507932014465332	-0.0622953987121582	1.028989990234375	-0.0635166015625	-0.04943619918823242	1.05743994140625	-0.06767479705810547	-0.014968600273132324	1.0740899658203125	-0.061090301513671875	-0.024262399673461915	1.0481400146484374	-0.04696749877929687	-0.025475400924682617	1.03472998046875	-0.04576869964599609	-0.029909000396728516	1.0087000122070313	-0.08938980102539062	-0.029572399139404296	1.0149600219726562	-0.05399959945678711	-0.009453149795532226	1.049280029296875	-0.04464239883422851	-0.00696599006652832	1.038949951171875	-0.03989920043945312	-0.006352550029754639	1.0088699951171876	-0.08770899963378906	-0.003618459939956665	1.0091300048828125	-0.05689509963989258	0.006673570156097412	1.0528800048828124	-0.04561090087890625	0.010825499534606934	1.0445899658203126	-0.034578201293945315	0.01543459987640381	1.0188300170898437	-0.08119599914550782	0.020787200927734374	1.0120399780273437	-0.05997689819335938	0.024359100341796874	1.05102001953125	-0.04532450103759766	0.028273000717163085	1.040969970703125	-0.04108409881591797	0.036534198760986326	1.0205800170898438	-0.07754119873046875	0.043791099548339846	1.0183099975585939	-0.09277490234375	0.01296619987487793	1.094260009765625
2	0.06666666666666667	-0.04301599884033203	-0.08240380096435547	1.0078699951171874	-0.05026359939575195	-0.06192300033569336	1.0289200439453126	-0.0629542007446289	-0.04903910064697266	1.0573900146484374	-0.06707890319824218	-0.014503899574279786	1.074219970703125	-0.06035129928588867	-0.02366029930114746	1.0484100341796876	-0.04616289901733398	-0.02499959945678711	1.034739990234375	-0.044829498291015624	-0.029461999893188477	1.0088200073242188	-0.08839089965820313	-0.029006900787353514	1.0148900146484374	-0.05306589889526367	-0.009038960456848145	1.04918994140625	-0.04377640151977539	-0.006523880004882812	1.039199951171875	-0.038911701202392575	-0.0058928499221801755	1.0091599731445313	-0.08666259765625	-0.003101310014724731	1.0091199951171874	-0.05643849945068359	0.007096829891204834	1.05325	-0.04490829849243164	0.011252300262451172	1.0449200439453126	-0.03366640090942383	0.015962100028991698	1.0188499755859375	-0.08015699768066406	0.021245100021362304	1.0121500244140624	-0.05908720016479492	0.024801000595092774	1.051199951171875	-0.04434550094604492	0.028748600006103516	1.0415799560546875	-0.04018349838256836	0.03696279907226562	1.0208900146484374	-0.07655799865722657	0.044218898773193356	1.01852001953125	-0.09188929748535156	0.013308099746704102	1.0941099853515626
3	0.1	-0.04240510177612305	-0.08197370147705078	1.0075	-0.04967250061035156	-0.061673900604248044	1.02877001953125	-0.0623306999206543	-0.048882801055908205	1.057300048828125	-0.066431396484375	-0.014427300453186034	1.0741600341796875	-0.05971149826049805	-0.02348950004577637	1.0484200439453124	-0.04544779968261719	-0.02486370086669922	1.0347099609375	-0.044145698547363284	-0.02930109977722168	1.00877001953125	-0.08779209899902343	-0.028896400451660156	1.0148300170898437	-0.05258589935302734	-0.00888877010345459	1.049280029296875	-0.04311320114135742	-0.006389739990234375	1.0390899658203125	-0.038242198944091796	-0.005736849784851074	1.0088900146484374	-0.08604429626464843	-0.002975840091705322	1.0090700073242187	-0.05520709991455078	0.007015379905700683	1.0521600341796875	-0.044346099853515626	0.011380499839782714	1.0448699951171876	-0.03301990127563476	0.015996500015258788	1.019	-0.0795426025390625	0.021382400512695313	1.0120700073242188	-0.05850370025634766	0.02499150085449219	1.05106005859375	-0.04386199951171875	0.028847700119018556	1.04125	-0.03959090042114258	0.03708390045166016	1.0209400024414061	-0.07599600219726563	0.04439310073852539	1.018469970703125	-0.09136579895019531	0.013348500251770019	1.094300048828125
4	0.13333333333333333	-0.041349998474121095	-0.08134510040283204	1.0070399780273438	-0.049195301055908205	-0.061559200286865234	1.0285899658203126	-0.06199980163574219	-0.048948501586914064	1.0570999755859376	-0.0660990982055664	-0.014654899597167969	1.0738699951171875	-0.05942900085449219	-0.023598199844360353	1.0481400146484374	-0.045246101379394534	-0.025106899261474608	1.0345999755859374	-0.043981998443603516	-0.02953409957885742	1.0083499755859375	-0.08764029693603516	-0.028982200622558595	1.014510009765625	-0.05217900085449219	-0.009036499977111817	1.0485899658203126	-0.04295130157470703	-0.0065699200630187984	1.0386500244140624	-0.03814699935913086	-0.005892069816589356	1.0086799926757812	-0.08585690307617187	-0.003069350004196167	1.00875	-0.055113300323486325	0.00683144998550415	1.0524000244140626	-0.04393629837036133	0.01118809986114502	1.044449951171875	-0.03280649948120117	0.015896599769592287	1.0184199829101563	-0.0792781982421875	0.021304500579833983	1.01172998046875	-0.058141899108886716	0.024808000564575196	1.0508900146484375	-0.043630401611328126	0.028718799591064454	1.040719970703125	-0.039288501739501956	0.03693310165405273	1.0204000244140625	-0.07570780181884766	0.044279899597167965	1.0181400146484374	-0.0908302993774414	0.013282600402832032	1.0933800048828124
5	0.16666666666666666	-0.04189350128173828	-0.08140640258789063	1.0064000244140625	-0.049633998870849606	-0.061717201232910156	1.0281800537109376	-0.062231899261474606	-0.04911759948730469	1.05668994140625	-0.06625199890136718	-0.014741999626159668	1.073550048828125	-0.05953030014038086	-0.023742599487304686	1.0476600341796876	-0.04532799911499023	-0.025267799377441405	1.033800048828125	-0.04415629959106445	-0.029804000854492186	1.0079299926757812	-0.08770549774169922	-0.029128599166870116	1.0141500244140624	-0.05227450180053711	-0.009262129783630372	1.048219970703125	-0.042936901092529296	-0.006777329921722412	1.038199951171875	-0.038165599822998046	-0.006246860027313232	1.0084099731445313	-0.08590409851074218	-0.003207180023193359	1.0083300170898437	-0.055311500549316404	0.006675580024719238	1.0517099609375	-0.04392190170288086	0.011010100364685058	1.0439100341796874	-0.032773200988769534	0.015580100059509277	1.0180399780273437	-0.07933789825439454	0.02110610008239746	1.0113499755859374	-0.058172100067138674	0.024690799713134766	1.050199951171875	-0.04357630157470703	0.028484899520874022	1.0403199462890624	-0.039208999633789064	0.03667559814453125	1.0200399780273437	-0.07559919738769531	0.044122001647949216	1.0177100219726563	-0.09120600128173828	0.01321399974822998	1.0937099609375
6	0.2	-0.04274169921875	-0.08153119659423828	1.0056699829101563	-0.05018330001831055	-0.061878299713134764	1.027489990234375	-0.06257490158081054	-0.04930860137939453	1.05618994140625	-0.0664459991455078	-0.014937700271606446	1.073050048828125	-0.05960260009765625	-0.023963800430297853	1.0471700439453124	-0.045576801300048826	-0.025482099533081056	1.03325	-0.04442890167236328	-0.029981800079345703	1.0074199829101562	-0.08800460052490235	-0.02918050003051758	1.0136699829101563	-0.05241379928588867	-0.009481389999389649	1.047510009765625	-0.04316400146484375	-0.007021289825439453	1.037780029296875	-0.0383911018371582	-0.006437439918518067	1.0075599975585938	-0.08612300109863281	-0.003263410091400146	1.0078699951171874	-0.056193099975585935	0.006624269962310791	1.052	-0.044176300048828124	0.010741600036621094	1.043550048828125	-0.032866500854492185	0.015349499702453613	1.0175700073242187	-0.07939119720458984	0.021076299667358397	1.0109000244140625	-0.05819770050048828	0.024409700393676757	1.050239990234375	-0.04370090103149414	0.028242399215698242	1.03997998046875	-0.03926449966430664	0.03646129989624024	1.0195	-0.07562339782714844	0.04403150177001953	1.0172899780273437	-0.09117230224609375	0.013086600303649902	1.09325
